<?xml version="1.0" encoding="UTF-8"?>
<svg id="Layer_2" data-name="Layer 2" xmlns="http://www.w3.org/2000/svg" viewBox="0 0 824.06 910.19">
  <g id="Layer_1-2" data-name="Layer 1">
    <g>
      <path d="M416.54,339.53l177.85-.05v9s-177.85.05-177.85.05v54.53s262.86-.07,262.86-.07l-.05-174.59c-2.85-.41-5.7-.79-8.56-1.15-.84-.1-1.68-.19-2.52-.29-2.02-.24-4.05-.49-6.07-.7-1.01-.11-2.03-.2-3.04-.3-1.85-.19-3.71-.38-5.57-.54-1.1-.1-2.2-.18-3.31-.27-1.77-.15-3.55-.3-5.32-.42-1.16-.08-2.32-.14-3.48-.22-1.72-.11-3.44-.22-5.15-.32-1.22-.06-2.44-.11-3.66-.17-1.66-.08-3.32-.16-4.98-.22-1.28-.05-2.55-.07-3.83-.11-1.6-.05-3.2-.1-4.81-.13-1.32-.02-2.65-.03-3.97-.04-1.55-.02-3.11-.04-4.66-.04-2.52,0-5.03.01-7.55.05-.51,0-1.03.02-1.54.03-2.09.04-4.18.08-6.26.15-.75.02-1.51.05-2.26.07-2.07.07-4.14.15-6.2.25-.53.03-1.06.05-1.58.07-2.58.13-5.17.28-7.75.45-.48.03-.97.07-1.45.1-2.12.15-4.24.3-6.35.48-.7.06-1.4.11-2.1.17-2.17.19-4.33.38-6.49.6-.42.04-.83.08-1.25.12-2.59.26-5.17.55-7.76.85-.48.06-.96.12-1.44.18-2.11.25-4.21.52-6.32.8-.66.09-1.32.18-1.98.27-2.24.31-4.47.63-6.7.97-.32.05-.63.09-.95.14-2.57.4-5.13.81-7.69,1.25-.5.09-1,.18-1.51.26-2.06.36-4.11.73-6.16,1.11-.65.12-1.29.24-1.94.37-2.26.43-4.51.88-6.75,1.34-.25.05-.5.1-.76.15-2.52.52-5.02,1.07-7.52,1.63-.55.12-1.09.25-1.64.38-1.97.45-3.93.91-5.89,1.39-.65.16-1.31.32-1.96.48-2.25.56-4.49,1.13-6.72,1.71-.2.05-.4.1-.6.16-2.44.65-4.87,1.32-7.3,2-.59.17-1.19.34-1.78.51-1.86.53-3.71,1.08-5.56,1.64-.67.2-1.34.4-2,.61-2.21.68-4.42,1.37-6.61,2.08-.16.05-.33.1-.49.16-2.35.76-4.68,1.55-7.01,2.35-.64.22-1.28.45-1.93.67-1.74.61-3.47,1.23-5.2,1.86-.68.25-1.36.49-2.04.75-2.18.81-4.34,1.63-6.5,2.47-.11.04-.23.09-.35.13-2.25.88-4.48,1.78-6.71,2.7-.67.28-1.34.56-2.01.84-1.64.68-3.26,1.38-4.89,2.08-.67.29-1.34.58-2.01.88-2.18.96-4.35,1.93-6.5,2.93l.02,75.42Z"/>
      <polygon points="416.6 587.6 471.48 587.59 471.46 527.99 585.48 527.96 585.47 473.81 471.47 473.84 471.47 464.84 594.47 464.81 594.49 536.96 480.46 536.99 480.48 587.59 679.45 587.54 679.45 587.54 679.4 411.99 679.4 411.99 679.4 411.99 416.56 412.06 416.6 587.6"/>
      <path d="M232.01,212.63l1.96,2.35c12.22.47,24.4,1.39,36.49,2.74l-18.63-22.55-19.82,17.46Z"/>
      <path d="M750.28,798.67l-10.66-5.54-11.8-6.37c-16.83-9.08-39.16-16.23-66.82-21.43l75.9,80.87,30.61-26.68-17.23-20.86Z"/>
      <path d="M664.98,758c2.1.41,4.19.83,6.26,1.27.76.16,1.53.32,2.29.49.37.08.74.16,1.11.24,1.39.31,2.77.62,4.14.95.57.13,1.13.26,1.69.4,1.27.3,2.54.62,3.79.93.65.16,1.29.33,1.94.5.84.22,1.67.44,2.5.66,1.31.35,2.6.71,3.89,1.08.87.25,1.75.49,2.61.74.75.22,1.49.45,2.23.68.84.25,1.68.51,2.51.77.27.08.53.17.8.25.61.19,1.2.4,1.8.59.98.32,1.97.64,2.94.97.79.27,1.56.55,2.34.83.18.06.36.13.53.19.54.2,1.09.39,1.63.59,1.28.47,2.54.95,3.78,1.44.06.02.11.05.17.07.6.24,1.2.47,1.8.71.71.28,1.41.57,2.1.86.67.28,1.34.57,2,.86.87.38,1.74.75,2.59,1.14.06.03.11.05.17.08,1.03.47,2.04.95,3.04,1.43.79.38,1.57.77,2.35,1.15,1.21.61,2.42,1.22,3.59,1.85,0,0,.02,0,.03.01l-.03-112.4v-12.77s0-5.79,0-5.79v-13.07s-.09-346.47-.09-346.47v-1.93s-43.12-13.67-43.12-13.67l.11,408.9v11.56s0,8.79,0,8.79v8.25s0,10.92,0,10.92l-10.72-2.08c-3.51-.68-7.05-1.28-10.59-1.85,0,0,0,0,0,0-.68-.11-1.37-.21-2.05-.32-.62-.1-1.24-.2-1.87-.3-.23-.04-.46-.07-.7-.11h0c-1.26-.19-2.53-.35-3.79-.52-1.28-.18-2.56-.35-3.84-.51,0,0,0,0,0,0-1.13-.14-2.27-.27-3.4-.4,0,0,0,0,0,0-.55-.06-1.11-.12-1.66-.18-2.86-.31-5.73-.59-8.6-.83-.55-.05-1.1-.1-1.65-.14,0,0,0,0,0,0-1.72-.14-3.45-.26-5.17-.37-.85-.05-1.7-.1-2.55-.15,0,0,0,0,0,0-1.21-.07-2.43-.14-3.64-.2,0,0,0,0,0,0-1.43-.06-2.86-.11-4.29-.15,0,0,0,0,0,0-1.14-.04-2.28-.09-3.42-.11h0c-2.61-.06-5.21-.09-7.82-.09-5.07,0-10.14.12-15.22.34h0c-2.54.11-5.09.24-7.64.41h0s0,0,0,0c-1.98.13-3.96.27-5.95.43h0s0,0-.01,0c-12.38,1-24.87,2.64-37.56,4.93,0,0,0,0,0,0-.14.03-.28.05-.41.08,0,0,0,0,0,0-1.86.34-3.72.69-5.58,1.05-.05.01-.1.02-.16.03,0,0,0,0,0,0-4.37.86-8.77,1.8-13.2,2.81,0,0,0,0,0,0-.3.07-.6.14-.9.21-2.29.53-4.59,1.08-6.9,1.65-.59.15-1.18.29-1.76.44,0,0,0,0,0,0-.75.19-1.49.37-2.24.57h0c-2,.51-4,1.04-6.01,1.58-6.14,1.66-12.31,3.48-18.53,5.42-.7.22-1.4.43-2.1.66,0,0,0,0,0,0-1.48.47-2.97.95-4.46,1.44-.48.16-.95.31-1.43.47,0,0,0,0,0,0-2.44.8-4.9,1.63-7.37,2.49-.37.13-.75.26-1.12.39,0,0,0,0,0,0-4.36,1.52-8.77,3.11-13.24,4.78,0,0,0,0,0,0-1.11.41-2.21.83-3.33,1.25,0,0,0,0,0,0-3.2,1.22-6.42,2.46-9.69,3.76,1.28-.06,2.58-.12,3.9-.18.78-.04,1.58-.07,2.38-.1.56-.02,1.12-.05,1.69-.07.8-.03,1.61-.07,2.42-.1.62-.03,1.24-.05,1.87-.08,0,0,.01,0,.02,0,.19,0,.37-.02.56-.02,0,0,.01,0,.02,0,.63-.03,1.27-.05,1.9-.08,1.08-.04,2.16-.08,3.26-.13.44-.02.88-.03,1.31-.05.8-.03,1.59-.06,2.39-.09,0,0,0,0,0,0,1.31-.05,2.63-.09,3.96-.14.47-.02.95-.03,1.43-.05.13,0,.26,0,.38-.01,1.01-.03,2.02-.07,3.04-.1,2.11-.06,4.26-.13,6.42-.18.22,0,.44-.01.66-.02.86-.02,1.71-.05,2.58-.07,0,0,0,0,.01,0,1.26-.03,2.54-.06,3.81-.09.17,0,.34,0,.51-.01.09,0,.17,0,.25,0,0,0,0,0,0,0,.93-.02,1.88-.04,2.82-.06.65-.01,1.3-.03,1.95-.04,0,0,.01,0,.02,0,.58-.01,1.16-.02,1.74-.03,0,0,0,0,.01,0,.53,0,1.06-.02,1.58-.03,2.8-.05,5.63-.09,8.49-.12h0c.9,0,1.79-.02,2.69-.03h.01c2.79-.02,5.59-.04,8.42-.05.41,0,.81,0,1.22,0,.61,0,1.22,0,1.83,0,2.25,0,4.5,0,6.77.02,0,0,0,0,0,0,2.62.01,5.26.04,7.91.07,1.85.02,3.71.05,5.57.08h0c.26,0,.53,0,.79.01h0c.9.02,1.81.04,2.71.05.07,0,.14,0,.22,0,1.64.03,3.28.07,4.93.1h0s.01,0,.02,0c0,0,0,0,0,0,2.18.05,4.36.11,6.55.18,0,0,0,0,0,0,2.14.06,4.29.14,6.44.21,3.21.12,6.42.25,9.64.4.6.03,1.21.06,1.81.09,3.18.15,6.35.32,9.53.51.01,0,.02,0,.03,0,0,0,0,0,0,0,2.71.16,5.41.33,8.12.52,2.16.15,4.33.31,6.48.47,2.7.21,5.39.43,8.07.67,0,0,0,0,0,0,2.15.19,4.3.39,6.44.6,2.84.28,5.65.59,8.46.9,1.62.18,3.24.35,4.85.54.09.01.18.02.27.03t0,0c1.15.14,2.29.28,3.43.43,1.16.15,2.33.29,3.49.44.46.06.91.12,1.37.18h0c.76.1,1.52.21,2.28.32.25.04.5.07.75.1,1.13.16,2.25.31,3.37.47.93.14,1.84.28,2.76.42.05,0,.1.02.15.02,1.62.25,3.24.5,4.85.76.14.02.27.05.4.07h0c1.68.27,3.35.56,5.01.85,2.26.4,4.51.8,6.74,1.23.44.08.87.17,1.3.26Z"/>
      <path d="M739.6,721.32c1.75-1.61,3.46-3.25,5.08-4.92,7.38-7.22,14.62-13.81,18.75-19.44,4.38-5.52,7.13-8.97,7.13-8.97,0,0-9.74-1.51-22.07-1.82-2.8-.02-5.8-.03-8.9.02v18.41c2.55-1.08,4.03-1.71,4.03-1.71,0,0-1.48.76-4.03,2.06v16.38Z"/>
      <path d="M144.57,235.7v10.83h0v.14h0s.02,92.93.02,92.93l144.04-.04-.02-57.85h9s.02,57.85.02,57.85l109.84-.03-.02-75.39h0c-57.7-26.65-125.29-40.55-193.35-40.53-23.25,0-46.57,1.64-69.55,4.94v7.15Z"/>
      <path d="M679.48,711.12v-36.45s-262.85.07-262.85.07l.02,63.86h-.04v12.54s23.23-9.4,23.23-9.4c61.61-24.93,117.53-37.06,170.96-37.07,1.65,0,3.3.04,4.95.06.83,0,1.67.02,2.5.03.56.01,1.11.01,1.67.03,16.09.33,32.58,1.79,49.34,4.52,1.51.25,3.03.51,4.55.77,1.72.3,3.44.6,5.16.93h0c.18.03.35.06.53.1Z"/>
      <path d="M739.29,281.38c1.07-3.18,1.6-7.36,1.4-12.62-.28-4.56-1.36-10.95-3.81-17.39-4.21,4.78-8.57,9.38-13.07,13.81.37,4.1.51,8.11.7,11.52l9.39,2.98,5.38,1.71Z"/>
      <path d="M135.57,246.34c-6.53,8.04-12.71,16.36-18.52,24.92l11.21-3.56c2.38-3.32,4.82-6.6,7.32-9.83v-11.53Z"/>
      <path d="M739.57,609.01h0s0,.12,0,.12c18.62-43.8,28.03-90.35,28.02-138.76,0-.01,0-.02,0-.03,0-.01,0-.02,0-.03,0-2.92-.04-5.84-.11-8.75,0-.08,0-.16,0-.24-.07-2.75-.17-5.49-.31-8.22-.02-.36-.03-.73-.05-1.09-.12-2.39-.27-4.78-.44-7.17-.06-.88-.13-1.77-.2-2.65-.15-1.85-.31-3.7-.48-5.54-.14-1.47-.29-2.93-.44-4.39-.14-1.27-.28-2.54-.43-3.81-.23-2-.49-4-.76-6-.1-.77-.21-1.53-.32-2.3-.34-2.4-.7-4.8-1.09-7.19-.07-.42-.14-.83-.2-1.25-.43-2.59-.89-5.18-1.38-7.76-.05-.29-.11-.58-.16-.87-.49-2.54-1-5.08-1.55-7.61-.09-.42-.18-.84-.27-1.26-.49-2.25-1.01-4.5-1.54-6.75-.19-.79-.38-1.58-.57-2.36-.43-1.74-.87-3.49-1.33-5.22-.36-1.39-.74-2.77-1.12-4.16-.29-1.04-.57-2.08-.87-3.11-.62-2.18-1.26-4.35-1.93-6.51-.11-.37-.22-.73-.33-1.1-3.51-11.35-7.58-22.49-12.2-33.4v19.6c12.53,34.48,19.63,71.09,20.75,108.64.03.94.07,1.87.09,2.8,0,.4,0,.79.01,1.19.04,2.17.07,4.35.07,6.52,0,38.03-6.06,75.12-17.7,110.19-1.02,3.04-2.06,6.08-3.16,9.1v.05h0s0,19.33,0,19.33Z"/>
      <path d="M308.44,770.99c-3.53,2.59-12.93,8.51-19.26,11.66,4.55,4.11,7.97,6.05,12.92,8.6,8.81,4.38,18.14,4.72,25.61,3.33,0,0-3.21-3.79-8.04-9.49-2.38-2.81-9.59-12.07-11.23-14.11Z"/>
      <path d="M331.88,754.93c-.29-.32-.59-.64-.89-.96-3.47,2.81-16.7,12.96-19.32,14.71,4.93,6.02,9.31,10.15,13.49,14.54,5.43,5.49,9.05,9.15,9.05,9.15,12.21-6.05,11.59-20.48-2.33-37.44Z"/>
      <path d="M785.3,360.73c5.77-23.01-11.54-71.16-11.54-71.16,0,0-5.11,5.82-10.51,13.91-12.7,19.04-15.58,36.53-11.79,52.1.86,3.53,2.08,6.78,3.6,9.68,1.23,2.99,2.77,5.63,4.6,7.85,0,0,1.17-3.61,2.92-9.04,1.49-5.4,3.04-12.64,4.67-20.16,1.59-7.5,3.09-15.23,4.15-21.13.95-5.85,1.19-9.7,1.19-9.7,0,0-.03,1.02-.08,2.81-.08,1.8-.04,4.28-.47,7.43-.68,6.23-1.66,14.39-2.74,22.33-1.19,7.98-1.95,15.56-3.61,21.47-1.41,5.76-2.35,9.6-2.35,9.6,8.11,6.15,17.3,2.5,21.94-16Z"/>
      <path d="M770.34,447.07c-.47,7.79.89,14.8,3.75,20.42,0,0,8.07-13.32,16.01-28.07,4.25-7.35,7.19-14.87,9.68-20.67,2.41-5.86,4.02-9.77,4.02-9.77,0,0-1.38,4.2-3.45,10.51-2,6.23-4.83,14.37-8.68,22.32-3.58,7.94-7.2,15.6-9.93,21.21-1.36,2.78-2.5,5.1-3.29,6.72-.77,1.61-1.4,2.52-1.4,2.52,3.17,4.34,7.39,6.18,12.14,4.76,4.74-1.43,10.26-6.14,14.52-15.07,2.41-4.81,4.44-11.98,6.1-20.11,2.35-11.54,2.63-39.33,2.66-47.74.02-5.8-.71-9.34-.71-9.34,0,0-1.64,1.21-4.29,3.17-2.55,2.01-6.21,4.91-10.24,8.39-26.56,22.98-26.61,46.46-26.87,50.75Z"/>
      <path d="M805.98,495.31c-25.09,13.01-35.62,29.33-40.85,45.2-2.6,7.89-3.68,15.37-2.45,21.92,0,0,3.14-2.91,7.85-7.27,4.75-4.43,11.22-10.52,16.65-17.15,5.7-6.56,11.44-13.45,15.74-18.76,2.15-2.68,3.95-4.92,5.2-6.49,1.29-1.58,1.9-2.51,1.9-2.51,0,0-.57,1.02-1.81,2.76-1.2,1.73-2.91,4.19-4.95,7.15-4.1,5.86-9.57,13.48-15,20.77-5.08,7.38-12.01,14.05-16.33,19.08-4.55,4.9-7.59,8.17-7.59,8.17,4.63,10.84,15.65,12.7,30.47-3.11,16.89-18.02,26.41-61.82,27.5-67.94,1.07-6.08,1.75-9.89,1.75-9.89,0,0-8.28,3-18.08,8.08Z"/>
      <path d="M602.76,825.95c-12.06-7.27-27.05-15.11-40.55-16.37-12.83-1.72-24.62-1.56-34.63.97-10.06,2.38-18.98,5.35-25.41,10.74,0,0,5.08,1.66,12.69,4.16,3.94,1.21,8.53,2.61,13.45,4.12,4.97,1.07,10.28,2.2,15.59,3.34,10.76,2.11,22.12,4.34,30.61,5.35,8.5.72,14.16,1.2,14.16,1.2,0,0-5.97-.08-14.93-.19-9.04-.63-21-2-32.42-3.42-11.34-1.07-22.76-4.08-30.96-5.95-8.11-2.01-13.52-3.34-13.52-3.34-9.2,11.55-5,24.75,21.64,31.27,14.52,4.17,40.87.79,63.78-4.36,11.17-3.15,21.53-6.49,29.06-9.04,7.63-2.39,12.05-4.71,12.05-4.71,0,0-2.21-1.59-5.77-4.14-3.58-2.41-8.81-5.97-14.82-9.63Z"/>
      <path d="M278.63,165.52c-5.1.18-8.5.3-8.5.3-2.75,8.67,4.03,15.08,18.9,15.63,8.77.32,41.01-7.71,45.66-8.67,3.64-.75,5.93-1.22,5.93-1.22,0,0-4.26-5.41-10.76-11.18-6.57-5.97-15.18-11.49-23.51-12.3-17.63-1.72-29.04,5.22-34.27,13.59,0,0,3.28.14,8.2.35,4.89.27,11.15.45,17.72,1.59,12.97,1.87,24.95,4.17,24.95,4.17,0,0-12.5-1.33-26.01-2.25-6.8-.61-13.16,0-18.3,0Z"/>
      <path d="M543.62,161.94c4.92-.21,8.19-.36,8.19-.36-2.71-4.33-7.24-8.37-13.12-11.05-6.11-2.26-13.44-3.33-21.16-2.53-8.34.82-16.94,6.35-23.51,12.32-6.5,5.77-10.75,11.18-10.75,11.18,0,0,2.28.47,5.93,1.22,3.77.78,34.68,9.06,45.67,8.65,14.86-.56,21.64-6.97,18.89-15.64,0,0-3.4-.12-8.5-.29-5.14,0-11.49-.6-18.3,0-13.5.92-26.01,2.26-26.01,2.26,0,0,11.97-2.31,24.95-4.18,6.57-1.15,12.83-1.33,17.72-1.6Z"/>
      <path d="M546.24,134.05c4.78,4.74,9.94,8.04,15.12,9.4,0,0-1.04-3.3-2.59-8.26-1.61-4.96-3.71-11.88-6.58-18.12-5.41-12.81-11.76-26.18-11.76-26.18,0,0,7.6,13.47,14.25,26.39,3.45,6.35,5.95,13.61,8.1,18.53,2,5.03,3.33,8.38,3.33,8.38,9.49.3,14.52-7.29,8.27-23.47-1.76-4.27-4.92-10.05-9.42-15.38-4.53-5.3-9.91-10.84-15.08-15.88-5.18-5.03-10.07-9.67-14.07-12.39-3.93-2.88-6.39-4.69-6.39-4.69,0,0-.95,7.01-.92,15.86.16,8.68.74,19.81,4.54,27.95,3.56,7.53,8.14,13.5,13.21,17.86Z"/>
      <path d="M352.86,138.25c-4.33-1.65-7.21-2.75-7.21-2.75-5.36,6.28-1.95,14.03,10.29,19.74,7.18,3.35,37.14,8.05,41.24,8.86,3.31.66,5.39,1.07,5.39,1.07,0,0-1.65-6.03-5.05-13.15-3.39-7.31-8.63-14.96-15.32-18.59-14.13-7.66-26.12-5.88-33.45-.73,0,0,2.69,1.28,6.73,3.19,3.99,1.95,9.17,4.31,14.26,7.59,10.19,6.14,19.39,12.29,19.39,12.29,0,0-9.98-5.53-20.95-11.06-5.47-2.91-11-4.65-15.3-6.45Z"/>
      <path d="M341.86,115.58s2.3-2.33,5.74-5.84c3.53-3.37,8.18-8.55,13.3-12.65,10.12-8.46,21.23-17.05,21.23-17.05,0,0-10.02,8.94-19.06,17.75-4.6,4.21-8.79,9.26-11.89,12.84-3.05,3.6-5.08,6-5.08,6,4.82.69,10.29-.26,15.96-2.53,5.78-1.86,11.71-5.24,17.35-10.28,6.04-5.47,10.46-14.58,13.65-21.78,3.14-7.39,4.82-13.59,4.82-13.59,0,0-2.7.64-7,1.67-4.31.87-10.04,3.03-16.14,5.41-6.1,2.39-12.55,5.13-18.21,7.96-5.65,2.87-10.32,6.6-13.3,9.54-10.93,11.33-9.4,19.44-1.36,22.54Z"/>
      <path d="M468.4,135.85c4.04-1.91,6.73-3.19,6.73-3.19-7.33-5.15-19.33-6.92-33.45.75-6.68,3.63-11.93,11.29-15.31,18.6-3.4,7.12-5.04,13.15-5.04,13.15,0,0,2.07-.41,5.39-1.07,4.1-.82,34.06-5.53,41.24-8.89,12.23-5.71,15.64-13.46,10.28-19.74,0,0-2.88,1.1-7.21,2.76-4.3,1.81-9.82,3.55-15.3,6.46-10.97,5.54-20.95,11.07-20.95,11.07,0,0,9.2-6.15,19.38-12.3,5.09-3.28,10.26-5.64,14.25-7.59Z"/>
      <path d="M444.44,103.8c5.64,5.04,11.57,8.42,17.35,10.27,5.67,2.27,11.15,3.22,15.96,2.52,0,0-2.03-2.4-5.08-5.99-3.1-3.58-7.29-8.63-11.9-12.83-9.05-8.81-19.07-17.74-19.07-17.74,0,0,11.11,8.58,21.23,17.04,5.13,4.09,9.78,9.28,13.31,12.64,3.45,3.5,5.74,5.83,5.74,5.83,8.04-3.1,9.57-11.22-1.37-22.54-2.98-2.95-7.66-6.67-13.31-9.54-5.66-2.83-12.11-5.57-18.22-7.95-6.1-2.38-11.84-4.53-16.14-5.4-4.31-1.02-7-1.66-7-1.66,0,0,1.68,6.19,4.83,13.58,3.2,7.2,7.61,16.3,13.66,21.77Z"/>
      <path d="M56.72,344.1c1.64,7.52,3.19,14.76,4.68,20.16,1.75,5.42,2.92,9.03,2.92,9.03,1.82-2.22,3.36-4.87,4.59-7.86,1.52-2.9,2.74-6.15,3.6-9.68,1.72-7.07,2-15.29.44-24.31-1.26-9.52-6.8-19.65-12.26-27.79-5.4-8.09-10.51-13.91-10.51-13.91,0,0-4.61,12.71-8.53,27.86-16.72,64.57,10.84,65.47,18.98,59.3,0,0-.94-3.84-2.35-9.6-1.67-5.9-2.43-13.48-3.62-21.47-1.09-7.93-2.07-16.1-2.75-22.33-.43-3.15-.39-5.63-.47-7.43-.05-1.79-.08-2.81-.08-2.81,0,0,.24,3.85,1.2,9.7,1.07,5.9,2.57,13.63,4.16,21.13Z"/>
      <path d="M14.25,442.04c1.66,8.13,3.7,15.3,6.11,20.11,4.26,8.92,9.78,13.64,14.53,15.06,4.75,1.42,8.97-.42,12.14-4.77,0,0-.64-.91-1.4-2.52-.8-1.62-1.93-3.94-3.3-6.72-2.73-5.61-6.35-13.27-9.94-21.21-3.86-7.95-6.69-16.09-8.69-22.32-2.08-6.3-3.46-10.51-3.46-10.51,0,0,1.61,3.91,4.02,9.77,2.49,5.8,5.43,13.32,9.69,20.67,7.95,14.74,16.02,28.06,16.02,28.06,2.86-5.62,4.21-12.63,3.74-20.42-.25-4.11-.49-27.92-26.89-50.74-4.03-3.48-7.69-6.38-10.24-8.39-2.65-1.95-4.29-3.17-4.29-3.17,0,0-.73,3.54-.71,9.34.04,9.76-.43,32.51,2.68,47.74Z"/>
      <path d="M59.75,568.35s-3.04-3.27-7.59-8.16c-4.33-5.02-11.26-11.7-16.34-19.07-5.44-7.29-10.91-14.9-15.01-20.76-2.05-2.96-3.76-5.42-4.96-7.15-1.24-1.74-1.81-2.76-1.81-2.76,0,0,.61.92,1.9,2.5,1.26,1.56,3.05,3.8,5.21,6.48,4.31,5.31,10.05,12.19,15.75,18.75,5.44,6.63,11.91,12.71,16.66,17.15,4.71,4.36,7.85,7.27,7.85,7.27,1.23-6.55.14-14.03-2.46-21.92-2.16-7.98-6.38-16.29-12.87-24.4-7.35-8.66-18.02-15.69-27.99-20.78-9.8-5.08-18.08-8.08-18.08-8.08,0,0,.68,3.81,1.75,9.89,11.59,65.35,47.24,96.27,58,71.02Z"/>
      <path d="M327.4,826.6s-5.41,1.34-13.52,3.35c-8.2,1.88-19.62,4.9-30.96,5.97-11.42,1.43-23.37,2.8-32.41,3.44-8.96.12-14.93.2-14.93.2,0,0,5.67-.49,14.16-1.21,8.49-1.02,19.85-3.25,30.61-5.37,5.31-1.14,10.61-2.28,15.59-3.35,4.92-1.51,9.51-2.92,13.44-4.13,7.61-2.5,12.69-4.16,12.69-4.16-6.44-5.39-15.36-8.36-25.42-10.73-10.02-2.53-21.81-2.68-34.63-.95-13.51,1.26-28.48,9.12-40.54,16.39-6.01,3.66-11.24,7.22-14.82,9.63-3.56,2.56-5.77,4.14-5.77,4.14,0,0,4.41,2.32,12.05,4.71,7.54,2.55,17.89,5.89,29.07,9.03,22.91,5.15,49.27,8.51,63.78,4.33,26.63-6.54,30.83-19.74,21.63-31.29Z"/>
      <path d="M398.98,840.88s-4.21,3.65-10.52,9.13c-6.45,5.41-15.24,13.28-24.86,19.39-9.52,6.46-19.54,13.13-27.31,17.8-7.92,4.18-13.2,6.96-13.2,6.96,0,0,4.83-3.01,12.06-7.52,7.1-4.76,16.2-11.92,24.82-18.7,4.21-3.43,8.41-6.86,12.36-10.07,3.69-3.58,7.14-6.92,10.1-9.79,5.64-5.69,9.4-9.48,9.4-9.48-8.18-1.87-17.48-.46-27.52,2-10.07,2.3-20.64,7.53-31.28,14.9-11.45,7.26-21.22,21.07-28.66,33.03-3.69,5.99-6.72,11.54-8.82,15.32-2.01,3.89-3.26,6.31-3.26,6.31,0,0,4.99.06,12.87-1.29,7.88-1.15,18.61-2.9,29.99-5.18,22.74-5.84,47.75-14.83,58.77-25.15,20.75-17.94,18.49-31.6,5.03-37.7Z"/>
      <path d="M518.3,888.5c-7.44-11.96-17.22-25.76-28.67-33.02-10.64-7.36-21.21-12.59-31.29-14.88-10.04-2.46-19.33-3.86-27.52-1.99,0,0,3.76,3.79,9.41,9.47,2.96,2.86,6.41,6.2,10.1,9.78,3.95,3.21,8.15,6.64,12.36,10.06,8.62,6.77,17.73,13.92,24.83,18.69,7.24,4.51,12.07,7.51,12.07,7.51,0,0-5.28-2.78-13.21-6.96-7.77-4.67-17.79-11.33-27.31-17.79-9.62-6.11-18.42-13.98-24.87-19.38-6.31-5.48-10.52-9.13-10.52-9.13-13.45,6.1-15.7,19.77,5.05,37.7,11.03,10.31,36.04,19.29,58.79,25.12,11.38,2.28,22.12,4.01,30,5.16,7.89,1.34,12.87,1.28,12.87,1.28,0,0-1.25-2.42-3.26-6.31-2.1-3.77-5.13-9.32-8.82-15.31Z"/>
      <path d="M643.6,759.69c-12.34,1.33-22.42,5.37-31.38,9.57-8.96,4.18-15.93,9.89-20.47,16.43,0,0,5.01.16,12.53.4,7.55.09,18.14.48,28.59-.13,10.28-.82,20.92-1.93,29.04-2.91,1.84-.23,3.53-.45,5.06-.64l-21.46-22.86c-.64.04-1.28.08-1.91.14Z"/>
      <path d="M661.43,784.12c-8.42,1.61-19.43,3.6-30.13,5.22-11.18.97-22,1.66-29.93,2.07-3.94.18-7.22.33-9.52.44-2.29.07-3.66-.05-3.66-.05-2.95,6.15-2.53,11.96,1.9,16.35,4.41,4.35,13.05,7.62,25.77,6.81,6.93-.31,16.33-2.52,26.62-5.78,10-3.67,20.48-8.97,30.32-14,1.43-.68,2.81-1.4,4.16-2.13l-9.5-10.12c-1.78.35-3.8.75-6.03,1.19Z"/>
      <path d="M771.98,824.94l-30.27,26.39,31.87,33.95c21.36,22.64,47.68-.55,27.93-24.6l-29.52-35.74Z"/>
      <path d="M256.64,124.39c.66,1.29,1.07,2.68,1.33,4.13.01.08.03.17.04.25.09.58.17,1.16.22,1.75.36,4.56-.91,9.44-3.07,13.6.82.12,1.68.17,2.59.14,0,0,1.33-3.35,3.33-8.38,2.14-4.93,4.64-12.19,8.09-18.54,6.65-12.93,14.24-26.4,14.24-26.4,0,0-6.34,13.37-11.74,26.19-2.87,6.24-4.96,13.16-6.57,18.13-1.55,4.96-2.59,8.26-2.59,8.26,5.19-1.36,10.34-4.67,15.12-9.41,5.07-4.36,9.64-10.34,13.2-17.87,3.79-8.14,4.37-19.28,4.52-27.95.02-8.85-.93-15.86-.93-15.86,0,0-2.46,1.81-6.39,4.69-4,2.72-8.89,7.37-14.07,12.4-5.17,5.04-10.55,10.59-15.08,15.89-2.91,3.45-5.81,8.75-7.58,12.04.3.28,3.39,2.82,5.32,6.93Z"/>
      <path d="M619.37,759.39c-.1-.01-.21-.02-.31-.03-3.48-.36-7.02-.7-10.62-1.01-57.45,39.4-125.34,60.62-196.51,60.64-48.37.01-95.24-9.78-138.34-28.42-2.96,1.38-5.84,2.68-8.68,3.91,2.83,1.28,5.67,2.53,8.54,3.74,43.87,18.54,90.46,27.93,138.48,27.92,48.02-.01,94.61-9.43,138.47-27.99,24.51-10.37,47.56-23.35,68.97-38.76Z"/>
      <path d="M285.03,777c9.08-4.62,22.81-13.45,33.74-21.83-1.74-.02-3.48-.04-5.2-.06-25.22,12.42-49.18,23.96-78.31,32.16-7.09,1.99-28.24,4.84-37.71,5.48,37.09-8.58,73.74-20.76,107.91-37.69-1.56,0-3.11,0-4.65,0-41.27.01-77.46,1.98-108.43,5.88-19.38,23.59-34.07,41.6-42.58,52.25,15.92-.22,18.81.05,33.79-2.67,18.41-3.33,33.77-6.63,51.57-12.47,17.8-5.84,31.24-11.56,49.89-21.06Z"/>
      <path d="M680.63,219.5l7.72,1.11v7.8s0,6.96,0,6.96c8.46-1.07,16.92-2.26,25.21-4.06,12.22-2.66,23.89-6.59,35.73-10.44.65-.21,1.24-.53,1.89-.74,12.48-14.39,20.59-31.13,27.28-48.21-7.95,4.15-15.72,8.64-23.95,12.22-10.71,4.66-21.74,8.33-32.89,11.77,10.57-4.45,21.19-8.98,31.16-14.62,9.97-5.64,19.13-12.18,28.62-18.51,2.81-10.49,5.6-20.98,8.27-31.51-2.69,1.27-5.23,2.66-7.96,3.9-11.94,5.46-24.08,10.56-36.27,15.48,11.35-6.32,22.72-12.76,33.8-19.51,4.22-2.58,8.18-5.3,12.32-7.89,4.62-30.7,6.39-50.21,2.05-87.52-13.38,16.51-72.05,87.2-149.13,179.97,12.16.83,24.23,2.1,36.12,3.8Z"/>
      <path d="M744.84,230.19c-8.67,1.57-17.35,3.37-26.14,4.49h0c-1.36.17-2.72.33-4.08.47-1.96.2-3.92.36-5.89.51-.95.07-1.9.13-2.85.19-5.83.39-11.68.61-17.53.76v9.91h0v11.55h0v7.16s2.27.72,2.27.72l12.49,3.96,3.41,1.08s0,0,0,0l.34.11c.45-.39.89-.8,1.34-1.2,0,0,0,0,0,.01.29-.26.58-.54.87-.8,1.64-1.46,3.25-2.94,4.86-4.44.39-.37.78-.74,1.17-1.11,1.81-1.71,3.6-3.45,5.36-5.21.09-.09.17-.17.26-.25,0,0,0,0,0,0,8.63-8.65,16.71-17.92,24.09-27.92Z"/>
      <path d="M95.3,278.17c.24-4.88.46-10.76,1.39-16.31,1.07-7.41,2.33-15.04,3.31-20.73-.69-4.37.03-8.95,2.22-12.91.36-.66.83-1.25,1.4-1.74l6.7-5.9c-1.19-3.06-2.3-5.62-3.09-7.35-.86-.15-1.71-.3-2.56-.47-.78,1.12-1.86,2.68-3.17,4.57-2.92,3.91-6.06,9.95-9.34,16.44-3.28,6.5-6.58,13.55-9.16,20.09-2.54,6.57-3.65,13.11-3.93,17.76-.17,4.59.21,8.36,1.03,11.36l4.39-1.36,5.58-1.77,5.26-1.67Z"/>
      <path d="M721.1,275.61c.05-2.39.1-5.07.09-7.9-2.1,2.01-4.23,3.97-6.37,5.91l6.28,1.99Z"/>
      <path d="M100.45,243.28c-.49,5.13-1.04,11.42-1.46,17.55-.56,5.61-.48,11.45-.38,16.28l12.73-4.04c2.28-4.42,4.01-9.54,5.03-15.27-5.34-.96-10.12-4.01-13.2-8.56-1.25-1.84-2.15-3.86-2.72-5.96Z"/>
      <path d="M56.2,479.25c0,.1,0,.21,0,.31.07,2.71.17,5.42.3,8.12.02.35.03.71.05,1.06.12,2.4.28,4.8.45,7.2.06.9.13,1.79.2,2.69.15,1.85.31,3.69.48,5.53.14,1.53.3,3.06.46,4.59.13,1.22.27,2.44.41,3.65.25,2.16.53,4.31.82,6.46.09.63.17,1.25.26,1.88.37,2.65.78,5.29,1.21,7.93.03.18.06.36.09.55.96,5.8,2.07,11.56,3.32,17.3.01.06.03.12.04.18.56,2.57,1.15,5.13,1.77,7.68.11.45.22.9.33,1.35.48,1.96.98,3.91,1.5,5.86.29,1.12.59,2.23.9,3.34.31,1.11.61,2.23.93,3.33.57,2.01,1.17,4.02,1.78,6.02.2.66.4,1.32.61,1.99.78,2.5,1.58,4.98,2.41,7.46.05.14.1.29.14.43,2.96,8.79,6.25,17.45,9.88,25.96v-19.45c-12.68-34.55-19.89-71.26-21.09-108.92-.04-1.15-.09-2.3-.11-3.45,0-.17,0-.34,0-.51-.05-2.42-.08-4.84-.08-7.27,0-39.08,6.38-77.16,18.66-113.08.83-2.41,1.68-4.81,2.56-7.2v-.04h0v-19.19h0v-.11c-18.85,44.04-28.39,90.88-28.38,139.6,0,.01,0,.02,0,.03s0,.02,0,.03c0,2.9.04,5.8.11,8.7Z"/>
      <path d="M247.69,154.78c-1.54,1.61-2.32,6.75-2.02,9.12,50.34-27.32,107.2-42.01,166.08-42.03,55.49-.01,109.01,12.86,157.14,37.19,1.38-1.18,4.86-3.81,6.17-4.78-8.1-4.18-16.37-8.08-24.82-11.65-43.87-18.54-90.46-27.93-138.48-27.92-48.02.01-94.61,9.43-138.47,27.99-9.14,3.87-16.87,7.49-25.59,12.07Z"/>
      <path d="M609.74,214.5h0s.01,0,.02,0h.02c7,0,14,.16,20.99.45L793.01,21.53s-1.75-15.07-2.87-21.53c-14.75,17.53-36.47,35.41-54.44,49.53-7.03,7.55-14.16,19.77-23.02,31.39-10.05,13.17-18.17,27.52-28.84,40.16,19.71-35.77,23.22-47.86,28.4-58.15-24.49,16.51-74.06,54.51-74.06,54.51,0,0-30.86,55.27-47.46,97.42,6.33-.24,12.68-.36,19.03-.36Z"/>
      <path d="M83.42,714.38c.39.3.77.6,1.15.9v-9.75c-6.53-3.04-12.2-4.99-19.79-6.67-8.94-1.99-19.88-1.39-29.05-.35-9.17,1.04-16.29,4.31-24.28,8.33,7.8-3.41,15.63-6.32,24.16-6.63,8.53-.31,16.96,1.13,24.91,3.53,7.95,2.4,16.26,6.74,22.9,10.65Z"/>
      <path d="M506.82,225.14c.19-.04.38-.08.57-.12,26.5-5.54,53.73-8.91,81.19-10.06,7.51-26.3,23.15-69.64,26.96-83.91-20.8,16.1-78.55,66.35-82.51,69.35-8.81,6.68-17.46,16.09-26.22,24.74Z"/>
      <path d="M121.34,776.21c.8,3.9,1.37,7.65,1.76,11.16-19.45,25.84-41.25,55.38-76.11,100.79-6.42,8.36,22.24,8.81,28.72.55,16.01-20.42,56.17-70.25,100.94-125.55-21.24,3.33-39.7,7.69-55.31,13.06Z"/>
      <path d="M58.13,58.08c-.52,38.46-20.37,57.67-7.82,101.21,7.43,25.77,32.52,44.39,61.54,48.07,8.61,1.09,16.74.63,23.9-.52l-23.11,20.35h0l-1.44,1.27-3.29,2.9c-1.23,2.24-1.79,4.73-1.68,7.2.11,2.47.89,4.92,2.32,7.03h0c.23.35.48.67.74.99.07.09.15.17.23.26.2.23.41.46.63.68.08.08.15.15.23.23.26.25.53.49.8.71.03.03.06.05.1.08,3.35,2.7,7.9,3.78,12.24,2.65,4.05-4.13,8.1-6.94,12.06-8.74v-13.9s0-7.8,0-7.8l7.72-1.11c6.31-.91,12.67-1.68,19.06-2.34,1.72-.18,3.44-.35,5.16-.51.02,0,.04,0,.06,0,1.89-.17,3.79-.34,5.68-.49,0,0,0,0,0,0,4.18-.34,8.37-.63,12.56-.87l48.45-42.67,3.73-3.29c-.15-1.1-.24-2.19-.26-3.25-.37-15.73,10.45-24.9,11.91-26.11,3.11-4.77,2.6-11.17-1.22-15.58-3.87-4.46-10.24-5.84-15.43-3.33l-24.05,21.18c.95-2.9,1.27-4.62,1.27-4.62,15.58-66.86-35.09-75.64-35.09-75.64,4.14,7.2,2.5,36.9-7.6,70.39-5.86,19.44-2.27,38.16,1.05,45.43l-9.02,7.94c-9.36-7.53-8.3-26.6-3.7-41.21,13.25-42.05,25.8-75.25,5.52-104.15C137.03,5.82,95.54,10.77,95.54,10.77c0,0,40.9,22.49,30.71,66.45-10.26,44.24-24.73,106.23,26.41,114.73l-4.84,4.26c-15.5-2.97-45.84-8.57-46.68-42.35-1.19-48.21,41.9-88.36,6.49-127.25-12.32-13.53-26.26-20.19-32.86-22.43-24.21-8.23-47.43-1.72-56,1.11,0,0,10.05,2.74,20,10.71,14.52,11.63,19.55,28.91,19.37,42.09Z"/>
      <path d="M197.67,214.89c5.48-.18,10.97-.28,16.46-.28h.02c1.45,0,2.9.01,4.34.03,9.62-8.47,19.25-16.95,28.87-25.42-3.35-4.07-5.68-8-7.2-11.74-14.17,12.47-28.33,24.95-42.5,37.42Z"/>
      <path d="M293.15,399.71c-28.97,0-52.53,23.58-52.53,52.55,0,28.97,23.58,52.53,52.55,52.53,28.97,0,52.53-23.58,52.53-52.55,0-28.97-23.58-52.53-52.55-52.53Z"/>
      <path d="M407.52,468.04l-.03-119.51-262.89.07.03,119.54.03,119.54h.07l262.82-.07-.03-119.57ZM293.18,513.79c-33.93,0-61.55-27.59-61.56-61.52,0-33.93,27.59-61.55,61.52-61.56,33.93,0,61.55,27.59,61.55,61.52,0,33.93-27.59,61.55-61.52,61.56Z"/>
      <path d="M407.57,674.74l-262.89.07v36.45c3.6-.7,7.18-1.32,10.75-1.89,1.27-.21,2.54-.42,3.81-.61,0,0,.01,0,.01,0,.37-.06.74-.11,1.11-.17h0c2.21-.33,4.42-.63,6.62-.92,0,0,0,0,0,0,7.54-.97,15.02-1.68,22.42-2.14,0,0,0,0,0,0h0c1.09-.07,2.18-.12,3.27-.18,1.37-.07,2.75-.16,4.11-.21,0,0,0,0,.01,0,2.5-.11,5-.19,7.48-.24.34,0,.69-.01,1.03-.02.08,0,.17,0,.25,0,0,0,.01,0,.02,0,.08,0,.16,0,.24,0,.88-.01,1.76-.03,2.64-.03,1.64-.02,3.27-.06,4.91-.06,53.42-.01,109.34,12.08,170.96,36.98l23.23,9.39-.02-76.4Z"/>
      <path d="M371.73,801.69c6.94,4.61,14.74,5.88,21.16,5.5,0,0-2.3-3.53-5.75-8.82-1.62-2.6-3.51-5.63-5.54-8.87-1.75-3.48-3.62-7.18-5.48-10.89-3.55-7.4-6.88-14.31-8.98-19.81-.28-.81-.54-1.58-.78-2.3-5.4-.22-10.69-.42-15.89-.59-.76,8.72-.17,18.14,3.27,25.66,4.47,8.79,11.12,15.4,17.99,20.12Z"/>
      <path d="M400.6,774.32c-3.39-4.82-8.91-10.89-14.88-16.93l-4.75-.23c-4.74-.23-9.39-.44-13.96-.63.3.7.62,1.44.96,2.22,2.69,5.29,6.66,12.2,10.91,19.49,4.11,7.55,9.23,13.92,13.08,19.13,3.98,5.19,6.64,8.64,6.64,8.64,10.9-3.79,11.9-15.98,2-31.7Z"/>
      <path d="M579.04,762.87c5.24-.44,10.89-2.36,16.39-5.55-4.44-.31-8.95-.6-13.56-.85-1.76,3.96-2.83,6.4-2.83,6.4Z"/>
      <path d="M572.46,762.43s.7-.94,1.75-2.84c.51-.95,1.12-2.1,1.82-3.42-4.45-.21-8.99-.39-13.59-.55,2.04,3.35,5.42,5.69,10.02,6.8Z"/>
      <path d="M521.26,791.2c8.74-4.52,17.51-11.29,24.04-20.94,2.72-4.4,4.56-9.56,5.77-14.96-8.46-.19-17.17-.29-26.11-.3-1.73,2.74-3.57,5.59-5.45,8.51-2.73,4.07-5.46,8.14-8.03,11.95-2.85,3.51-5.51,6.78-7.79,9.58-4.82,5.69-8.03,9.49-8.03,9.49,7.47,1.39,16.8,1.04,25.6-3.34Z"/>
      <path d="M522.16,755c-10.05.01-20.38.14-31.1.39-13.52,16.74-14,30.96-1.91,36.94,0,0,3.62-3.66,9.05-9.15,5.28-5.55,12.21-12.26,18.14-20.5,2-2.62,3.96-5.19,5.82-7.67Z"/>
      <path d="M450.9,801.67c6.86-4.72,13.51-11.34,17.98-20.13,3.43-7.51,4.01-16.91,3.26-25.61-5.2.18-10.5.38-15.91.62-.24.71-.49,1.45-.76,2.23-2.1,5.5-5.43,12.41-8.97,19.81-1.87,3.71-3.73,7.41-5.48,10.89-2.02,3.25-3.91,6.28-5.53,8.87-3.45,5.29-5.74,8.82-5.74,8.82,6.42.37,14.22-.9,21.16-5.51Z"/>
      <path d="M424.04,806.01s2.65-3.46,6.63-8.65c3.85-5.22,8.97-11.59,13.07-19.14,4.25-7.29,8.21-14.21,10.9-19.49.32-.75.63-1.47.93-2.15-4.06.18-8.17.36-12.35.57l-6.41.31c-5.93,6.01-11.41,12.06-14.79,16.85-9.89,15.72-8.88,27.91,2.02,31.7Z"/>
      <path d="M739.58,622.86v21.75c5.52-3.17,12.07-7.35,18.9-11.69,16.3-9.83,30.84-22.42,30.84-22.42,0,0-3.67,3.43-9.17,8.59-5.26,5.16-13.78,11.15-21.45,17.1-6.89,5.06-13.29,10.07-19.11,13.64v19.89c5.01-.02,11.45-2.05,19.32-6.71,21.19-12.53,44.04-56.55,47.12-62.62,3.12-6.15,4.66-9.73,4.66-9.73,0,0-13.99,1.97-20.89,3.48-26.12,5.7-41.22,17.45-50.22,28.73Z"/>
      <path d="M333.99,747.45c1.37.03,2.73.07,4.08.1,1.05.03,2.09.05,3.12.08,1.19.03,2.38.07,3.56.1,1,.03,1.99.06,2.98.09,1.27.04,2.55.08,3.81.12,0,0,0,0,.01,0,1.59.05,3.16.11,4.72.16.02,0,.05,0,.07,0,1.53.06,3.05.11,4.55.17.06,0,.11,0,.17,0,1.47.06,2.93.12,4.37.17.07,0,.13,0,.2,0,1.41.06,2.81.12,4.2.18.4.02.79.03,1.19.05.74.03,1.48.07,2.21.1,1.05.05,2.11.09,3.14.14-2.39-.95-4.75-1.87-7.09-2.77,0,0,0,0,0,0-.8-.31-1.6-.61-2.4-.92h0c-1.09-.42-2.17-.82-3.25-1.22-1.36-.51-2.73-1.02-4.09-1.52,0,0,0,0,0,0-1.73-.63-3.46-1.25-5.18-1.86-1.08-.39-2.17-.77-3.25-1.14-1.55-.54-3.09-1.07-4.62-1.59-.78-.27-1.56-.53-2.34-.79-2.01-.67-4-1.33-5.99-1.97-.65-.21-1.3-.41-1.95-.62-1.75-.55-3.49-1.1-5.23-1.63-.47-.14-.95-.29-1.42-.44-2.12-.64-4.24-1.27-6.35-1.88-.52-.15-1.04-.3-1.57-.45-2.19-.62-4.38-1.24-6.56-1.83-2.51-.68-5.01-1.33-7.5-1.96-.72-.18-1.43-.35-2.15-.53-1.81-.45-3.63-.89-5.43-1.32-.75-.18-1.5-.35-2.25-.52-1.85-.42-3.69-.83-5.52-1.23-.62-.13-1.24-.27-1.86-.4-2.19-.46-4.38-.91-6.56-1.34-.23-.05-.47-.09-.7-.14-12.4-2.4-24.6-4.18-36.68-5.35-.03,0-.07,0-.1,0-1.94-.19-3.88-.36-5.82-.52-.07,0-.15-.01-.22-.02-1.91-.15-3.83-.29-5.73-.41-.08,0-.16,0-.23-.01-4.97-.32-9.93-.53-14.88-.64-.18,0-.35-.01-.53-.01-.78-.02-1.56-.03-2.33-.04,0,0,0,0,0,0-1.7-.02-3.41-.04-5.11-.04-2.6,0-5.21.04-7.82.1,0,0,0,0,0,0-1.13.03-2.27.08-3.4.12-1.44.05-2.87.09-4.31.16-.27.01-.55.02-.82.03-.94.05-1.88.12-2.82.17-1.36.08-2.73.15-4.09.25-1.21.08-2.43.18-3.64.28-1.38.11-2.75.22-4.12.35-1.19.11-2.37.22-3.55.35-1.42.14-2.83.3-4.25.46-.66.08-1.33.14-2,.22-.47.06-.94.13-1.4.19-1.5.19-3,.39-4.49.6-.74.1-1.48.19-2.22.29-.31.04-.62.1-.92.15-1.68.25-3.35.52-5.02.79-.87.14-1.73.27-2.6.42-2.53.43-5.06.89-7.58,1.38l-10.3,2h0l-.29.06-.12.02v-10.92s-.12-437.5-.12-437.5l-19.51,6.2-11.21,3.56h0s-2.02.64-2.02.64l-10.37,3.3h0s0,4.45,0,4.45h0v21.6s0,0,0,0v16.93s0,0,0,0l.07,280.27h0v4.01s0,8.18,0,8.18v4.66h0l.04,152.33s.01,0,.02,0c1.37-.74,2.77-1.46,4.2-2.16.4-.2.8-.39,1.2-.59,1.18-.57,2.37-1.13,3.59-1.69.3-.14.6-.28.9-.41.09-.04.19-.08.28-.12,1.39-.62,2.8-1.23,4.24-1.82.38-.16.76-.31,1.14-.46,1.05-.43,2.11-.84,3.18-1.25.19-.07.38-.15.57-.22.43-.16.85-.33,1.29-.49,1.59-.6,3.21-1.18,4.85-1.75.25-.09.51-.17.76-.26.23-.08.46-.15.69-.23,2.19-.74,4.42-1.46,6.68-2.15.41-.13.82-.25,1.23-.37,3.41-1.03,6.9-2.01,10.47-2.94.33-.09.66-.17.99-.25,2.37-.61,4.78-1.2,7.21-1.77.04,0,.07-.02.11-.03,1.28-.3,2.58-.59,3.88-.88.18-.04.36-.08.53-.12,2.49-.54,5.01-1.07,7.55-1.57.06-.01.11-.02.17-.03.08-.02.15-.03.23-.05,4.06-.8,8.18-1.54,12.35-2.24.11-.02.22-.04.32-.05,4.23-.7,8.52-1.36,12.85-1.96h0c.84-.12,1.67-.24,2.51-.35.61-.08,1.23-.17,1.84-.25,1.98-.26,3.97-.51,5.96-.75.32-.04.65-.08.97-.11,3.36-.4,6.75-.77,10.14-1.12h0c.75-.08,1.5-.16,2.25-.23.39-.04.77-.08,1.16-.12,2.02-.2,4.05-.38,6.08-.57.65-.06,1.31-.11,1.96-.17.59-.05,1.18-.1,1.78-.15.14-.01.28-.02.42-.04.83-.07,1.66-.14,2.49-.21.6-.05,1.2-.1,1.81-.14,2.03-.16,4.07-.31,6.1-.45.56-.04,1.12-.08,1.68-.11,1.61-.11,3.23-.21,4.84-.31.66-.04,1.31-.08,1.97-.12.3-.02.6-.03.9-.05,1.69-.1,3.39-.2,5.08-.29,0,0,.02,0,.02,0,.31-.02.63-.03.94-.05,1.86-.1,3.72-.19,5.58-.27.68-.03,1.36-.06,2.04-.09.61-.03,1.22-.05,1.83-.07,1.05-.04,2.09-.09,3.14-.13.48-.02.97-.04,1.45-.06,1.66-.06,3.32-.12,4.98-.17.38-.01.77-.03,1.16-.04.59-.02,1.19-.03,1.78-.05,1.61-.05,3.22-.09,4.82-.13.6-.02,1.2-.03,1.79-.04,2.04-.05,4.08-.09,6.1-.12.4,0,.8-.01,1.2-.02,1.71-.03,3.42-.05,5.13-.07.61,0,1.22-.01,1.83-.02,1.4-.01,2.79-.03,4.18-.04.42,0,.84,0,1.26-.01.27,0,.54,0,.81,0,2.03-.01,4.05-.02,6.06-.02.23,0,.46,0,.68,0,1.93,0,3.84,0,5.75.01.21,0,.43,0,.64,0,.51,0,1.02,0,1.53,0,1.45,0,2.89.02,4.32.03.63,0,1.27.01,1.9.02,1.59.02,3.17.04,4.75.06.21,0,.43,0,.64,0,.29,0,.57,0,.86.01,1.89.03,3.77.06,5.64.09.26,0,.52.01.78.02,1.75.03,3.48.07,5.21.11.25,0,.49.01.73.02.15,0,.3,0,.45.01Z"/>
      <path d="M19.39,591.67c-3.68-.5-5.97-.8-5.97-.8,0,0,.39.96,1.09,2.69.85,1.67,2.07,4.08,3.58,7.04,3.4,6.69,26.15,50.2,47.16,62.6,7.88,4.65,14.31,6.68,19.32,6.7v-19.89c-5.83-3.57-12.23-8.57-19.12-13.63-7.68-5.95-16.19-11.94-21.46-17.09-5.51-5.15-9.18-8.58-9.18-8.58,0,0,14.55,12.58,30.85,22.4,6.84,4.34,13.39,8.52,18.9,11.68v-21.73c-10.06-12.58-25.84-23.41-50.25-28.71-5.83-1.27-11.11-2.12-14.92-2.66Z"/>
      <path d="M74.75,537.54c.72,7.89,3.84,14.69,7.82,19.47,0,0,.74-1.97,1.96-5.19v-46.82c-1.92,2.23-3.49,4.59-4.53,7.06-3.94,8.57-5.53,17.5-5.25,25.48Z"/>
      <path d="M79.41,426.32c-2.97,3.41-5.55,7.03-7.4,10.73-1.58,3.73-2.67,7.51-3.29,11.19-1.24,7.36-.58,14.28,1.73,19.61,0,0,6.53-8.74,14.06-18.1v-28.06c-1.89,1.4-3.62,2.93-5.1,4.62Z"/>
      <path d="M78.5,463.95c-1.63,2.5-2.99,4.59-3.94,6.05-.98,1.48-1.34,2.33-1.34,2.33,3.26,3.63,7.16,5.11,11.29,4.33v-21.69c-2.2,3.24-4.26,6.33-6.01,8.99Z"/>
      <path d="M755.32,448.06c-.62-3.68-1.71-7.46-3.3-11.19-1.85-3.7-4.44-7.32-7.4-10.73-1.48-1.69-3.21-3.22-5.09-4.62v28.06c7.54,9.36,14.08,18.09,14.08,18.09,2.31-5.33,2.96-12.25,1.72-19.61Z"/>
      <path d="M750.83,472.15s-.36-.85-1.34-2.33c-.95-1.46-2.31-3.54-3.94-6.04-1.75-2.66-3.81-5.75-6.01-8.98v21.69c4.14.78,8.04-.7,11.29-4.34Z"/>
      <g>
        <polygon points="272.2 603.75 262.84 603.75 262.84 659.47 272.2 659.47 272.2 632.79 279.61 632.79 279.61 624.89 272.2 624.89 272.2 603.75"/>
        <path d="M251.64,623.22c-2.17-1.15-4.62-1.73-7.33-1.73s-5.14.58-7.32,1.73c-2.18,1.15-3.89,2.77-5.12,4.85-1.23,2.08-1.84,4.41-1.84,7s.61,4.92,1.84,7c1.23,2.08,2.94,3.7,5.12,4.85,2.18,1.15,4.62,1.73,7.32,1.73s5.16-.58,7.33-1.73c2.17-1.15,3.89-2.77,5.14-4.85,1.25-2.08,1.87-4.41,1.87-7s-.62-4.92-1.87-7c-1.25-2.08-2.96-3.69-5.14-4.85ZM248.88,638.24c-.43.88-1.04,1.55-1.81,1.99-.78.44-1.69.66-2.73.66s-1.91-.22-2.72-.66-1.44-1.1-1.89-1.99c-.45-.88-.68-1.94-.68-3.16s.23-2.27.68-3.13c.45-.86,1.08-1.53,1.89-1.99.81-.46,1.71-.69,2.72-.69s1.95.23,2.73.69c.78.46,1.38,1.12,1.81,1.99s.65,1.91.65,3.13-.22,2.28-.65,3.16Z"/>
        <polygon points="249.06 604.75 239.61 604.75 239.61 611.7 228.4 611.7 228.4 619.35 260.19 619.35 260.19 611.7 249.06 611.7 249.06 604.75"/>
        <polygon points="325.99 613.75 297.04 613.75 297.04 604.33 287.6 604.33 287.6 613.75 287.6 618 287.6 621.31 325.99 621.31 325.99 613.75"/>
        <polygon points="296.69 649.68 325.91 649.68 325.91 633.75 287.07 633.75 287.07 641.07 316.52 641.07 316.52 642.81 287.12 642.81 287.12 651.61 287.12 653.26 287.12 658.96 327.47 658.96 327.47 651.61 296.69 651.61 296.69 649.68"/>
        <rect x="281.78" y="623.87" width="49.82" height="7.56"/>
        <path d="M379.05,619.64c.18-2.62.27-5.62.27-8.99v-4.58h-38.43v7.59h28.94c-.06,2.14-.15,4.08-.28,5.8-.12,1.64-.37,3.44-.73,5.38h-33.83v7.65h20.04v6.47h-15.2v7.5h29.84v13.01h9.5v-20.51h-14.64v-6.47h20.28v-7.65h-6.42c.33-1.84.56-3.58.67-5.2Z"/>
        <path d="M425.24,623.15h-7.71c-.29-2.26-.82-4.34-1.59-6.22-1.24-3.04-2.95-5.38-5.14-7.02-2.18-1.64-4.67-2.46-7.47-2.46s-5.26.82-7.45,2.46-3.92,3.97-5.17,7.02c-1.25,3.04-1.87,6.58-1.87,10.62s.62,7.65,1.87,10.71c1.25,3.06,2.97,5.41,5.17,7.05,2.19,1.64,4.68,2.46,7.45,2.46s5.28-.83,7.47-2.49c2.18-1.66,3.9-4,5.14-7.05.89-2.19,1.46-4.66,1.71-7.39h7.59v28.82h9.42v-55.9h-9.42v19.4ZM408.15,633.92c-.43,1.7-1.06,2.96-1.87,3.78-.82.82-1.8,1.24-2.94,1.24s-2.04-.41-2.86-1.24-1.45-2.08-1.87-3.78c-.42-1.7-.63-3.82-.63-6.37s.21-4.61.63-6.31c.42-1.7,1.05-2.97,1.87-3.81.83-.84,1.78-1.24,2.86-1.2,1.14-.04,2.11.35,2.91,1.17.8.82,1.42,2.08,1.87,3.78.45,1.7.68,3.82.68,6.37s-.22,4.67-.65,6.37Z"/>
        <path d="M463.99,632.56c1.15-.61,2.16-1.35,3.06-2.21h11.21v5.84h9.42v-32.44h-9.42v6.93h-11.09c-.93-.91-1.98-1.69-3.18-2.33-2.23-1.19-4.71-1.79-7.42-1.79s-5.25.6-7.5,1.79-4.01,2.85-5.31,4.97c-1.3,2.12-1.95,4.5-1.95,7.15s.65,4.95,1.95,7.09c1.3,2.14,3.07,3.8,5.31,5,2.24,1.2,4.74,1.79,7.5,1.79s5.19-.6,7.42-1.79ZM478.26,622.76h-7.24c.12-.74.18-1.5.18-2.29s-.06-1.49-.16-2.2h7.22v4.49ZM451.49,623.58c-.49-.85-.74-1.89-.74-3.12,0-1.29.25-2.35.74-3.19.49-.84,1.18-1.47,2.05-1.87.88-.4,1.88-.6,3.03-.6s2.13.2,2.97.6c.84.4,1.49,1.02,1.96,1.87.47.84.71,1.91.71,3.19s-.24,2.26-.71,3.12c-.47.85-1.13,1.51-1.96,1.96-.84.45-1.83.68-2.97.68s-2.15-.23-3.03-.68c-.88-.45-1.56-1.1-2.05-1.96Z"/>
        <path d="M478.84,638.54c-2.88-.88-6.26-1.33-10.14-1.33s-7.25.44-10.11,1.33c-2.86.88-5.07,2.16-6.61,3.84-1.54,1.68-2.32,3.69-2.32,6.04s.77,4.33,2.32,6.01c1.54,1.68,3.76,2.95,6.64,3.82,2.88.87,6.24,1.31,10.08,1.31s7.25-.44,10.14-1.31c2.88-.87,5.11-2.15,6.67-3.82,1.56-1.68,2.35-3.68,2.35-6.01s-.78-4.36-2.35-6.04c-1.56-1.68-3.79-2.96-6.67-3.84ZM477.5,650.55c-.71.54-1.79.94-3.23,1.2-1.45.26-3.3.39-5.56.39s-4-.13-5.46-.39c-1.46-.26-2.54-.66-3.25-1.2s-1.06-1.25-1.06-2.14c0-.94.35-1.7,1.06-2.26.71-.56,1.79-.97,3.25-1.23,1.46-.26,3.28-.39,5.46-.39s4.12.13,5.56.39,2.52.67,3.23,1.23c.71.56,1.06,1.32,1.06,2.26,0,.88-.35,1.6-1.06,2.14Z"/>
        <path d="M533.42,624.59h-2.86v-20.21h-8.94v34.71c-1.99-1.31-3.64-2.92-4.91-4.85-1.58-2.4-2.68-5.06-3.29-8-.61-2.93-.92-6.13-.92-9.61v-.03h7.26v-7.62h-24.62v7.62h8.15v.03c0,3.79-.29,7.27-.86,10.42s-1.63,6.03-3.17,8.63c-1.54,2.6-3.67,4.69-6.36,6.28l5.79,7.44c3.05-1.87,5.43-4.44,7.14-7.73.94-1.81,1.71-3.76,2.34-5.83.6,1.53,1.3,3,2.12,4.36,1.85,3.06,4.34,5.43,7.47,7.09l3.87-5.25v15.03h8.94v-24.79h2.86v27.17h9.06v-55.72h-9.06v20.84Z"/>
        <polygon points="575.14 635.8 575.14 642.24 585.06 642.24 585.06 645.8 594.51 645.8 594.51 603.87 585.06 603.87 585.06 635.8 575.14 635.8"/>
        <path d="M557.86,624.37c2.1.83,4.48,1.25,7.16,1.25s4.97-.42,7.05-1.25c2.08-.83,3.71-2,4.88-3.51,1.17-1.51,1.76-3.24,1.76-5.21s-.59-3.69-1.76-5.24c-1.17-1.55-2.8-2.76-4.9-3.63-2.1-.87-4.44-1.29-7.04-1.25-2.68-.04-5.06.37-7.16,1.23-2.09.86-3.73,2.07-4.91,3.63-1.18,1.56-1.77,3.31-1.77,5.26s.59,3.7,1.77,5.21,2.82,2.68,4.91,3.51ZM560.71,613.87c.39-.48.96-.83,1.71-1.05.75-.22,1.61-.33,2.6-.33s1.77.11,2.46.33,1.24.57,1.64,1.05c.39.48.59,1.07.59,1.78s-.2,1.25-.59,1.72c-.39.46-.94.8-1.64,1.02-.7.22-1.52.33-2.46.33s-1.85-.11-2.6-.33c-.75-.22-1.32-.56-1.71-1.02-.39-.46-.59-1.03-.59-1.72s.2-1.29.59-1.78Z"/>
        <path d="M563.22,651.01v-6.17h7.35v-10.28c4.12-.36,8.13-.88,12.01-1.56l-.47-6.9c-4.88.64-10,1.07-15.36,1.29-5.36.22-11.53.37-18.49.45h-.89l1.06,7.53c4.3,0,8.51-.09,12.63-.25v6.7h-7.35v16.9h41.94v-7.71h-32.44Z"/>
      </g>
    </g>
  </g>
</svg>