<?xml version="1.0" encoding="UTF-8"?>
<svg id="Layer_2" data-name="Layer 2" xmlns="http://www.w3.org/2000/svg" viewBox="0 0 22 22">
  <defs>
    <style>
      .cls-1 {
        fill: #fff;
        fill-rule: evenodd;
      }
    </style>
  </defs>
  <g id="Layer_1-2" data-name="Layer 1">
    <path class="cls-1" d="M5.5,0C2.46,0,0,2.46,0,5.5v11c0,3.04,2.46,5.5,5.5,5.5h11c3.04,0,5.5-2.46,5.5-5.5V5.5c0-3.04-2.46-5.5-5.5-5.5H5.5ZM11,7c-2.21,0-4,1.79-4,4s1.79,4,4,4,4-1.79,4-4-1.79-4-4-4ZM5,11c0-3.31,2.69-6,6-6s6,2.69,6,6-2.69,6-6,6-6-2.69-6-6ZM17,3c-1.1,0-2,.9-2,2s.9,2,2,2,2-.9,2-2-.9-2-2-2Z"/>
  </g>
</svg>